<svg width="512" height="512" viewBox="-28 -4 420 420" fill="none" xmlns="http://www.w3.org/2000/svg">
<path d="M166.57 377.49C175.01 382.8 183.99 387.83 193.24 392.46C278.29 350.14 329.87 281.14 343.88 187.38C348.64 155.94 348.78 123.29 345.1 91.71C344.01 82.59 342.65 72.52 340.75 63L193.24 21.77L45.8597 63.01C43.9497 72.26 42.5897 81.93 41.5097 90.63C31.7097 99.61 23.9597 110.5 17.9697 123.7C19.3297 77.98 28.0397 46.27 28.0397 46.27L193.24 0L358.58 46.27C358.58 46.27 430.43 305.92 193.24 415.73C180.99 410.01 169.43 403.89 158.68 397.36L160.99 392.32C163.3 387.42 165.07 382.52 166.57 377.49Z" fill="#101827"/>
<path d="M2.17969 199.77C15.9197 157.58 44.2297 131.32 73.3497 118.94C71.9897 127.24 73.2097 135.68 77.2997 143.16C79.6097 147.38 82.6097 151.19 86.2797 154.32C69.6797 163.85 53.8897 176.91 43.5497 189.84C43.6897 178.41 45.0497 169.16 47.6297 160.45C23.4097 175.83 2.17969 199.78 2.17969 199.78V199.77Z" fill="#1C4ED8"/>
<path d="M141.39 322.52L141.8 301.43C162.35 328.37 167.38 364.98 149.28 395.74C146.56 368.25 142.48 355.46 123.97 335.32C122.34 346.48 123.02 365.12 123.02 365.12C87.0902 329.74 75.2502 279.93 97.1602 236.25C98.5202 292.72 128.87 304.02 141.39 322.53V322.52Z" fill="#1C4ED8"/>
<path d="M118.66 157.72C127.51 159.63 130.77 160.44 130.77 160.44C114.58 175.41 97.1605 187.79 97.5705 222.63C101.79 217.6 107.64 211.47 113.08 207.93C103.69 229.43 118.93 270.12 130.36 283.73C132.4 266.99 138.66 249.98 155.13 237.46C151.05 249.3 152.95 295.16 157.58 308.36C157.58 308.36 164.25 295.43 165.88 289.72C179.08 330.54 179.22 341.57 167.38 364.97C181.4 362.11 194.6 352.18 204.53 342.24C203.44 348.64 201.13 354.35 201.13 354.35C214.33 350.54 226.31 337.48 231.2 324.14C240.73 318.97 247.26 311.89 249.44 301.41L250.94 293.38C260.33 245.48 303.33 260.18 309.86 228.74C310.54 225.2 310.54 220.85 309.32 217.31L309.18 216.9C314.62 215.54 318.71 211.05 321.16 206.01C322.93 202.34 324.29 196.21 324.83 192.27C326.05 185.19 326.74 175.53 319.52 171.18C318.16 170.36 316.53 169.82 314.76 169.68C315.03 168.86 315.3 168.05 315.44 167.23C316.26 161.51 312.85 156.89 308.23 153.89L286.18 139.19L277.06 126.4C275.56 124.36 274.07 122.18 272.43 119.87C272.7 115.79 273.11 111.57 273.11 110.48C273.25 108.03 266.03 86.3901 261.41 81.4901C248.35 67.8801 229.97 61.2101 211.88 57.0001C226.44 68.9801 229.43 75.6401 231.07 82.8601C231.34 83.6801 231.21 86.9401 231.07 90.4801C227.12 83.2701 223.18 76.3301 219.5 71.4301C213.51 63.2601 169.97 44.3501 165.07 44.3501C147.24 44.3501 108.32 56.7301 93.2205 67.2101C122.89 62.0401 141.39 58.0901 162.21 77.8201C139.35 68.5701 132.68 67.0701 108.87 72.5101C101.39 74.2801 93.3605 76.4601 85.6005 78.7701C49.1305 89.3801 32.6605 111.16 22.7305 140.01C39.6005 126.13 54.4405 118.24 75.1205 112.25C77.9805 104.09 83.2805 97.0101 89.5405 91.1601L93.0805 87.8901L97.7105 89.1101C104.11 90.7401 120.57 95.5101 137.04 100.27C146.29 98.7701 156.09 97.4101 158.68 97.5501C162.35 97.6901 181.13 102.04 193.65 104.9H193.79C190.25 98.7801 186.58 92.6501 186.58 92.6501C186.58 92.6501 206.72 99.4501 222.51 107.07C223.6 107.34 224.69 107.75 225.64 108.16C227.14 108.98 228.91 110.07 230.68 111.29C234.49 113.47 237.35 115.64 239.53 117.69C241.71 119.6 243.88 121.36 245.52 123.13C244.84 120.14 243.48 117.01 241.17 113.33L254.64 112.51C259.68 116.86 265.66 125.03 270.15 131.29L257.49 126.39C259.8 132.92 266.74 136.6 275.32 142.18L303.49 160.82C313.29 167.35 300.09 172.39 293.96 174.02C286.48 170.89 275.72 166.67 274.77 166.13C273.41 165.45 273 162.59 273 162.59C273 162.59 262.52 167.22 259.39 172.12C256.26 177.02 258.71 179.74 258.71 179.74C258.71 179.74 262.93 177.02 267.69 176.75C272.45 176.48 287.56 179.74 290.28 184.51C291.64 186.82 292.05 190.23 292.05 193.08C291.91 217.3 248.37 215.94 242.38 209C242.38 209 245.78 204.51 253.27 202.33C243.2 200.7 237.48 205.6 237.48 205.6C218.02 205.33 201.69 217.85 195.29 232.82C196.65 211.18 219.92 193.76 239.38 189.41C222.23 187.78 203.05 197.85 203.05 197.85C209.31 183.02 230.95 174.44 241.43 173.63C214.62 169.96 181.83 185.47 168.76 216.77C163.59 203.57 162.77 192.68 164.41 183.97C158.83 186.01 153.66 188.73 149.44 192C149.44 192 151.21 180.71 160.19 169.95C151.07 173.08 142.23 177.57 135.42 182.47C139.91 170.22 147.4 159.47 152.43 153.21C142.63 152.53 132.56 150.76 132.29 145.18C131.47 139.06 138.14 132.39 141.27 129.53C139.23 128.03 136.1 126.13 133.38 125.31C128.48 123.81 108.89 121.36 108.89 121.36C101.27 131.02 105.22 143.13 116.65 149.94C110.53 149.8 104.95 147.63 101.95 145.31C105.76 151.84 112.7 155.52 118.69 157.69L118.66 157.72ZM247.13 237.46C249.04 230.52 247.4 220.59 244.14 214.19C248.77 215.14 253.39 217.46 257.07 217.73C259.25 225.35 253.26 233.79 247.14 237.46H247.13ZM296.66 193.65C296.8 189.3 297.34 184.12 298.16 182.9C299.79 180.86 309.86 178.27 313.4 178C320.75 177.46 315.03 199.09 313.4 202.36C307.41 214.88 296.12 207.8 296.66 193.65ZM290.4 241.14C292.71 234.34 293.12 225.22 291.62 220.18L282.77 218.27C282.77 218.27 290.93 216.5 292.7 217.05C294.47 217.59 296.78 219.77 298.82 219.91C300.86 219.91 301.27 220.05 301.27 220.05C301.27 220.05 305.35 231.75 290.38 241.14H290.4ZM238.69 280.33C245.9 259.1 263.32 241.41 283.73 236.65C264.81 245.5 246.99 269.31 242.5 291.76C242.09 289.17 241.28 286.45 240.32 284L238.69 280.33ZM193.78 247.67C192.42 258.01 192.15 268.76 194.73 277.2C195 274.61 195.68 271.89 196.91 269.72C197.45 276.66 197.45 283.46 203.17 294.62L203.31 294.76C203.72 294.62 209.98 292.04 215.42 280.61C217.87 292.04 213.65 300.48 213.65 300.48C213.65 300.48 215.83 299.8 216.78 297.62C227.39 300.34 230.25 297.35 230.25 297.35C230.25 297.35 230.39 298.85 230.11 300.62C232.56 297.22 234.87 294.5 235.42 286.06C240.86 298.72 237.05 312.32 223.99 318.31C223.99 318.31 225.62 314.5 225.49 310.01C221.27 315.04 213.38 318.58 213.38 318.58C213.65 315.31 211.47 310.82 209.71 307.01C207.67 308.51 201.68 311.36 196.24 313C195.15 305.11 190.93 296.4 188.62 288.51C185.35 276.94 185.08 266.46 193.79 247.69L193.78 247.67Z" fill="#1C4ED8"/>
<path d="M0 242.5C6.26 220.18 16.74 204.94 36.47 190.52C36.47 190.52 35.25 202.9 34.97 214.61C44.63 198.28 70.9 170.79 103.56 166.16C80.56 182.9 65.32 215.15 64.23 242.91C73.48 224.27 90.22 211.07 90.22 211.07C68.99 256.39 93.76 303.61 59.06 345.38C64.91 312.86 40.96 273.26 46.68 238.15C25.32 269.18 25.72 287.82 25.72 287.82C12.25 271.9 13.88 246.31 18.78 226.86C12.52 230.26 5.99 237.34 0 242.51L0 242.5Z" fill="#1C4ED8"/>
<path d="M95.5296 97.1602C101.52 98.7902 109.68 101.24 117.71 103.56C123.02 105.06 128.19 106.55 132.68 107.78C139.21 109.82 146.02 112 149.28 113.5C151.19 115 152.95 116.77 154.86 118.67C157.45 121.39 162.21 126.56 165.47 130.92C164.52 132.42 162.07 136.64 159.62 142.35C154.45 142.35 147.51 143.03 139.34 144.66C142.74 141.12 150.09 138.54 156.21 137.04C156.21 137.04 149.41 135.41 140.42 138.26C144.09 135.27 149.81 132 157.02 132.68C157.02 132.68 142.6 119.34 141.64 118.94C140.55 118.67 103.26 108.87 103.26 108.87C88.6996 116.08 86.7896 141.39 102.04 153.91C80.5396 145.74 71.8296 119.34 95.5096 97.1602H95.5296Z" fill="#1C4ED8"/>
<path d="M228.75 135.27C232.83 135.54 234.6 139.62 237.32 140.99C239.91 142.35 264.13 155.01 264.13 155.01C251.61 150.25 240.86 147.53 231.2 144.53C229.84 144.12 208.07 145.89 206.02 145.35C204.11 144.81 200.44 140.86 199.22 140.45C197.86 140.18 190.24 141.4 190.24 141.4C190.24 141.4 192.69 138.13 200.04 136.09C207.39 133.91 224.81 135 228.75 135.27Z" fill="#1C4ED8"/>
</svg>
