<svg width="152" height="190" viewBox="0 0 152 190" fill="none" xmlns="http://www.w3.org/2000/svg">
<path fill-rule="evenodd" clip-rule="evenodd" d="M150.858 86.3765C144.761 67.731 133.322 57.808 117.467 55.1948C127.652 10.8341 107.972 19.4294 100.202 30.0164C113.67 22.3534 116.014 30.6802 111.192 45.6531C93.3923 25.5245 89.1686 32.34 75.5002 48.9514C61.8319 32.34 57.6081 25.5174 39.83 45.6531C34.9866 30.6802 37.33 22.3534 50.7989 30.0164C43.0281 19.4294 23.3482 10.8341 33.5336 55.1948C17.6715 57.8009 6.23965 67.724 0.142673 86.3765C-0.954214 69.5038 4.15984 54.3543 21.6744 42.6373C19.6872 14.1536 31.7245 -0.550888 57.6295 22.4381C59.3746 22.1274 61.0697 22.3251 62.7222 23.0172C59.6381 16.2159 54.0326 9.93012 44.2532 8.88484C60.158 4.69668 71.3905 9.25916 75.5002 22.2615C79.61 9.25916 90.8424 4.69668 106.747 8.88484C96.9678 9.92305 91.3552 16.2159 88.2782 23.0172C89.9521 22.3322 91.6259 22.1344 93.3709 22.4381C119.304 -0.550888 131.32 14.1536 129.333 42.6373C146.841 54.3543 151.962 69.5038 150.865 86.3765H150.858ZM75.5002 167.322C59.5954 148.959 27.4153 146.218 28.1062 106.088C6.61715 159.023 59.7093 166.128 75.5002 190.007C91.3125 166.135 144.383 159.023 122.894 106.088C123.585 146.218 91.4264 148.966 75.5002 167.322ZM75.5002 11.9783C77.1527 8.32689 80.0373 5.46651 84.6599 3.7644C82.2454 0.840458 78.8336 0 75.5002 0C72.1668 0 68.7551 0.840458 66.3405 3.7644C70.9631 5.46651 73.8478 8.32689 75.5002 11.9783ZM133.927 137.447C141.748 116.937 138.55 99.8662 121.356 87.2169C119.504 92.5351 114.881 95.565 111.662 99.7532C116.327 109.365 116.349 119.974 102.061 125.066C102.239 139.53 84.3465 143.358 75.5073 152.504C66.661 143.358 48.7689 139.523 48.9541 125.066C34.659 119.974 34.6804 109.365 39.3742 99.7532C36.1334 95.565 31.5108 92.5351 29.6589 87.2169C12.4577 99.8662 9.26678 116.937 17.0874 137.447C0.812201 116.209 2.86352 89.145 27.2301 69.871C23.2129 68.296 18.8111 68.1407 13.8538 70.203C22.1659 62.8083 31.0549 60.1669 40.7417 63.9596C42.4155 70.3371 27.5435 79.9494 47.0168 88.5447C53.5411 80.8605 60.621 74.4123 60.037 67.5686C57.3802 68.7622 54.1181 69.1647 50.6564 65.1743C48.1991 62.3634 45.6777 59.6584 41.7247 58.373C54.2106 55.7174 66.9174 56.4661 64.9088 71.8132C63.4345 83.1559 55.2149 87.8667 49.9655 96.8151C41.3899 111.407 50.4784 118.893 63.5698 113.137C78.5345 106.583 67.7437 101.95 64.0399 98.9622C55.9984 92.4927 58.705 88.4176 64.4672 90.1691C68.7551 91.4545 69.9873 93.644 75.5002 93.644C81.0131 93.644 82.2454 91.4545 86.5332 90.1691C92.3168 88.4176 94.9949 92.4927 86.9605 98.9622C83.2781 101.95 72.466 106.583 87.4306 113.137C100.522 118.893 109.611 111.407 101.035 96.8151C95.7855 87.8667 87.566 83.1488 86.0916 71.8132C84.083 56.4661 96.7898 55.7104 109.276 58.373C105.323 59.6584 102.801 62.3563 100.344 65.1743C96.8824 69.1577 93.6202 68.7622 90.9848 67.5686C90.4008 74.4123 97.4593 80.8535 104.005 88.5447C123.478 79.9494 108.585 70.3371 110.28 63.9596C119.953 60.174 128.842 62.8083 137.147 70.203C132.189 68.1407 127.788 68.296 123.77 69.871C148.137 89.138 150.195 116.202 133.934 137.44L133.927 137.447ZM88.5916 119.995C84.0118 117.516 79.3037 115.877 75.5002 112.268C71.7038 115.877 66.9887 117.516 62.4088 119.995C50.0581 126.662 66.3405 132.708 75.5002 140.102C84.6599 132.708 100.942 126.662 88.5916 119.995Z" fill="#3662E3"/>
</svg>
