<svg width="1277" height="416" viewBox="0 0 1277 416" fill="none" xmlns="http://www.w3.org/2000/svg">
<g clip-path="url(#clip0_67_19)">
<path d="M514.45 122.67V124.17C511.88 128.75 510.59 132.61 510.59 135.76V259.78C510.59 261.64 510.91 263.39 511.56 265.04C512.2 266.69 513.17 268.79 514.46 271.37V272.87H481.63V271.37C484.2 266.79 485.49 262.93 485.49 259.78V135.76C485.49 133.9 485.17 132.15 484.52 130.5C483.88 128.86 482.91 126.75 481.62 124.17V122.67H514.45Z" fill="#101827"/>
<path d="M544.38 157.22C548.6 145.78 554.5 136.91 562.08 130.61C569.66 124.32 578.39 121.17 588.26 121.17C598.13 121.17 606.85 124.36 614.44 130.72C622.02 137.09 627.88 146.1 632.03 157.76C636.18 169.42 638.25 182.83 638.25 197.99C638.25 213.15 636.17 226.31 632.03 237.9C627.88 249.49 622.02 258.47 614.44 264.83C606.86 271.2 598.13 274.38 588.26 274.38C578.39 274.38 569.66 271.16 562.08 264.73C554.5 258.29 548.6 249.21 544.38 237.48C540.16 225.75 538.05 212.23 538.05 196.93C538.05 181.63 540.16 168.68 544.38 157.24V157.22ZM603.71 236.71C607.57 227.05 609.5 214.36 609.5 198.62C609.5 182.03 607.57 168.66 603.71 158.5C599.85 148.35 594.7 143.27 588.26 143.27C584.11 143.27 580.39 145.49 577.1 149.92C573.81 154.35 571.27 160.61 569.48 168.69C567.69 176.77 566.8 186.04 566.8 196.48C566.8 206.92 567.69 216.72 569.48 225.02C571.27 233.32 573.81 239.75 577.1 244.33C580.39 248.91 584.11 251.2 588.26 251.2C594.7 251.2 599.85 246.37 603.71 236.72V236.71Z" fill="#101827"/>
<path d="M750.9 122.67V124.17C748.61 128.32 747.47 132.18 747.47 135.76V272.87H738.67L691.04 181.47V259.79C691.04 263.51 692.33 267.3 694.9 271.16V272.88H661.86V271.16C664.43 266.73 665.72 262.94 665.72 259.79V135.77C665.72 133.77 665.43 131.91 664.86 130.19C664.29 128.47 663.36 126.47 662.07 124.18V122.68H689.75L721.72 187.91V135.77C721.72 131.62 720.43 127.76 717.86 124.18V122.68H750.9V122.67Z" fill="#101827"/>
<path d="M863.33 122.67V124.17C862.04 126.6 861.11 128.57 860.54 130.07C859.97 131.57 859.68 133.11 859.68 134.68V260.84C859.68 264.27 860.89 267.78 863.33 271.35V272.85H830.5V271.35C833.07 266.77 834.36 262.91 834.36 259.76V203.12H807.97V259.76C807.97 261.62 808.29 263.37 808.94 265.02C809.58 266.67 810.55 268.77 811.84 271.35V272.85H777.72V271.35C780.29 266.77 781.58 262.91 781.58 259.76V135.74C781.58 132.59 780.29 128.73 777.72 124.15V122.65H811.84V124.15C809.27 128.73 807.98 132.59 807.98 135.74V180.15H834.37V135.74C834.37 132.59 833.08 128.73 830.51 124.15V122.65H863.34L863.33 122.67Z" fill="#101827"/>
<path d="M939.71 144.13H919.11V181.04H928.98C932.27 181.04 936.49 179.83 941.64 177.39H943.36V204.85H941.64C936.49 202.42 932.27 201.2 928.98 201.2H919.11V251.41H943.36C945.36 251.41 947.4 250.98 949.48 250.12C951.55 249.26 954.52 247.76 958.38 245.61H959.24V272.86H890.15V271.36C892.58 266.93 893.8 263.06 893.8 259.77V135.75C893.8 132.46 892.58 128.6 890.15 124.16V122.66H955.81V149.27H954.95C948.08 145.84 943 144.12 939.72 144.12L939.71 144.13Z" fill="#101827"/>
<path d="M1035.83 121.17L1067.58 261.07C1068.58 265.36 1070.23 268.87 1072.52 271.58V272.87H1039.05V271.37C1040.77 268.65 1041.63 266.08 1041.63 263.64C1041.63 263.07 1041.48 262.07 1041.2 260.64L1035.84 239.4H1014.81L1008.8 261.71C1008.51 263.14 1008.37 264.14 1008.37 264.71C1008.37 266.57 1009.09 268.79 1010.52 271.36V272.86H979.19V271.79C981.34 268.93 982.69 266.36 983.27 264.07L1016.31 132.33C1016.45 131.9 1016.52 131.26 1016.52 130.4C1016.52 128.83 1016.16 127.33 1015.45 125.89C1014.73 124.46 1013.95 123.39 1013.09 122.67V121.17H1035.83ZM1018.88 219.01H1032.18L1025.74 186.82L1018.87 219.01H1018.88Z" fill="#101827"/>
<path d="M1148.91 272.87L1129.81 210.22H1122.51V259.79C1122.51 263.08 1123.65 266.94 1125.94 271.38V272.88H1093.54V271.38C1095.97 266.95 1097.19 263.08 1097.19 259.79V135.77C1097.19 132.48 1095.97 128.62 1093.54 124.18V122.68H1135.17C1146.76 122.68 1156.09 126.54 1163.17 134.27C1170.25 141.99 1173.79 152.15 1173.79 164.74C1173.79 174.75 1171.54 183.62 1167.03 191.35C1162.52 199.07 1157.19 204.51 1151.04 207.66L1170.78 260.44C1172.35 264.3 1174.5 267.95 1177.22 271.38V272.88H1148.9L1148.91 272.87ZM1141.93 182.75C1145.43 178.89 1147.19 173.74 1147.19 167.3C1147.19 153.28 1140.39 146.27 1126.81 146.27H1122.52V188.54H1129.82C1134.4 188.54 1138.44 186.61 1141.94 182.75H1141.93Z" fill="#101827"/>
<path d="M1218.86 272.87V271.37C1220.43 269.08 1221.61 267.04 1222.4 265.25C1223.18 263.46 1223.58 261.64 1223.58 259.78V145.85H1212.21C1208.92 145.85 1204.49 147.5 1198.91 150.78L1196.33 152.5H1195.47V122.67H1277V152.5H1276.14L1273.57 150.78C1267.99 147.49 1263.56 145.85 1260.27 145.85H1248.9V259.78C1248.9 261.64 1249.29 263.46 1250.08 265.25C1250.86 267.04 1252.05 269.08 1253.62 271.37V272.87H1218.86Z" fill="#101827"/>
<path d="M647.67 304.69V309.94H627.14V319.32H643.92V324.57H627.14V334.04H647.67V339.34H621.89V304.7H647.67V304.69Z" fill="#101827"/>
<path d="M671.929 307.03C674.569 308.59 676.669 310.7 678.229 313.33C679.789 315.97 680.569 318.85 680.569 321.98C680.569 325.11 679.789 328 678.229 330.65C676.669 333.31 674.569 335.42 671.929 336.98C669.289 338.54 666.409 339.32 663.279 339.32H652.119V304.68H663.279C666.399 304.68 669.289 305.46 671.929 307.02V307.03ZM663.279 334.03C665.469 334.03 667.479 333.49 669.329 332.41C671.169 331.33 672.629 329.87 673.709 328.03C674.789 326.19 675.329 324.17 675.329 321.98C675.329 319.79 674.789 317.78 673.709 315.93C672.629 314.08 671.169 312.62 669.329 311.55C667.489 310.47 665.469 309.93 663.279 309.93H657.369V334.02H663.279V334.03Z" fill="#101827"/>
<path d="M691.07 338.16C688.91 336.94 687.21 335.28 685.96 333.17C684.71 331.06 684.09 328.74 684.09 326.21V304.69H689.34V326.21C689.34 327.8 689.73 329.25 690.51 330.55C691.29 331.85 692.35 332.87 693.7 333.62C695.04 334.37 696.51 334.75 698.11 334.75C699.71 334.75 701.17 334.37 702.52 333.62C703.86 332.87 704.93 331.85 705.71 330.55C706.49 329.25 706.88 327.81 706.88 326.21V304.69H712.13V326.21C712.13 328.74 711.5 331.06 710.25 333.17C709 335.28 707.3 336.94 705.14 338.16C702.98 339.38 700.64 339.99 698.11 339.99C695.58 339.99 693.23 339.38 691.08 338.16H691.07Z" fill="#101827"/>
<path d="M723.65 337.57C721.18 335.96 719.23 333.79 717.79 331.06C716.35 328.32 715.63 325.35 715.63 322.13C715.63 318.91 716.35 315.94 717.79 313.2C719.23 310.47 721.18 308.3 723.65 306.69C726.12 305.08 728.81 304.27 731.71 304.27C734.61 304.27 737.48 305.11 740.01 306.8C742.54 308.49 744.51 310.78 745.92 313.69L741.33 316.17C740.33 314.08 738.98 312.44 737.27 311.27C735.57 310.1 733.72 309.51 731.72 309.51C729.72 309.51 727.94 310.07 726.28 311.2C724.62 312.33 723.31 313.86 722.34 315.8C721.37 317.74 720.89 319.85 720.89 322.13C720.89 324.41 721.37 326.51 722.34 328.44C723.31 330.36 724.63 331.89 726.3 333.03C727.97 334.17 729.78 334.74 731.71 334.74C733.64 334.74 735.55 334.14 737.24 332.93C738.93 331.73 740.26 330.08 741.23 327.98L745.92 330.56C744.48 333.5 742.5 335.8 739.97 337.47C737.44 339.14 734.69 339.98 731.72 339.98C728.75 339.98 726.13 339.17 723.66 337.56L723.65 337.57Z" fill="#101827"/>
<path d="M766.639 304.69L779.579 339.33H773.949L770.859 331.13H756.379L753.329 339.33H747.699L760.639 304.69H766.639ZM768.939 325.88L763.639 311.63L758.339 325.88H768.929H768.939Z" fill="#101827"/>
<path d="M777.47 309.94V304.69H806.11V309.94H794.44V339.33H789.19V309.94H777.47Z" fill="#101827"/>
<path d="M815.35 304.69V339.33H810.1V304.69H815.35Z" fill="#101827"/>
<path d="M827.56 337.55C825.04 335.93 823.04 333.74 821.56 330.99C820.08 328.24 819.33 325.24 819.33 321.99C819.33 318.74 820.07 315.74 821.56 312.99C823.04 310.24 825.04 308.06 827.56 306.45C830.08 304.84 832.82 304.04 835.79 304.04C838.76 304.04 841.51 304.85 844.04 306.45C846.57 308.06 848.58 310.24 850.06 312.99C851.54 315.74 852.29 318.74 852.29 321.99C852.29 325.24 851.55 328.24 850.06 330.99C848.58 333.74 846.57 335.93 844.04 337.55C841.51 339.18 838.76 339.99 835.79 339.99C832.82 339.99 830.08 339.18 827.56 337.55ZM826.08 328.39C827.08 330.34 828.44 331.89 830.16 333.03C831.88 334.17 833.75 334.74 835.79 334.74C837.83 334.74 839.7 334.17 841.42 333.03C843.14 331.89 844.51 330.34 845.52 328.39C846.54 326.44 847.04 324.3 847.04 321.99C847.04 319.68 846.53 317.59 845.52 315.64C844.5 313.69 843.14 312.14 841.42 311C839.7 309.86 837.83 309.29 835.79 309.29C833.75 309.29 831.88 309.86 830.16 311C828.44 312.14 827.08 313.68 826.08 315.62C825.08 317.56 824.58 319.68 824.58 321.99C824.58 324.3 825.08 326.44 826.08 328.39Z" fill="#101827"/>
<path d="M861.469 304.69L878.81 329.96V304.69H884.06V339.33H878.859L861.52 314.06V339.33H856.27V304.69H861.469Z" fill="#101827"/>
<path d="M907.459 304.69L920.399 339.33H914.779L911.689 331.13H897.209L894.159 339.33H888.529L901.469 304.69H907.469H907.459ZM909.749 325.88L904.449 311.63L899.149 325.88H909.739H909.749Z" fill="#101827"/>
<path d="M929.63 304.69V334.03H947.3V339.33H924.38V304.69H929.63Z" fill="#101827"/>
<path d="M977 337.55C974.48 335.93 972.48 333.74 971 330.99C969.51 328.24 968.77 325.24 968.77 321.99C968.77 318.74 969.51 315.74 971 312.99C972.48 310.24 974.48 308.06 977 306.45C979.51 304.84 982.259 304.04 985.229 304.04C988.199 304.04 990.949 304.85 993.479 306.45C996.009 308.06 998.02 310.24 999.5 312.99C1000.98 315.74 1001.73 318.74 1001.73 321.99C1001.73 325.24 1000.99 328.24 999.5 330.99C998.01 333.74 996.009 335.93 993.479 337.55C990.949 339.18 988.199 339.99 985.229 339.99C982.259 339.99 979.52 339.18 977 337.55ZM975.52 328.39C976.52 330.34 977.879 331.89 979.599 333.03C981.319 334.17 983.189 334.74 985.219 334.74C987.249 334.74 989.129 334.17 990.849 333.03C992.569 331.89 993.94 330.34 994.95 328.39C995.96 326.44 996.469 324.3 996.469 321.99C996.469 319.68 995.96 317.59 994.95 315.64C993.94 313.69 992.569 312.14 990.849 311C989.129 309.86 987.259 309.29 985.219 309.29C983.179 309.29 981.309 309.86 979.599 311C977.879 312.14 976.52 313.68 975.52 315.62C974.52 317.56 974.02 319.68 974.02 321.99C974.02 324.3 974.52 326.44 975.52 328.39Z" fill="#101827"/>
<path d="M1025.66 306.05C1027.18 306.96 1028.38 308.17 1029.27 309.68C1030.16 311.2 1030.61 312.86 1030.61 314.67C1030.61 316.48 1030.16 318.15 1029.27 319.66C1028.38 321.18 1027.18 322.38 1025.66 323.27C1024.14 324.16 1022.49 324.61 1020.71 324.61H1010.96V339.33H1005.71V304.69H1020.71C1022.49 304.69 1024.14 305.14 1025.66 306.05ZM1020.71 319.36C1021.99 319.36 1023.08 318.9 1023.99 317.98C1024.9 317.06 1025.35 315.96 1025.35 314.68C1025.35 313.4 1024.9 312.3 1023.99 311.37C1023.08 310.45 1021.99 309.99 1020.71 309.99H1010.96V319.37H1020.71V319.36Z" fill="#101827"/>
<path d="M1059.9 304.69V309.94H1039.37V319.32H1056.15V324.57H1039.37V334.04H1059.9V339.34H1034.12V304.7H1059.9V304.69Z" fill="#101827"/>
<path d="M1084.3 306.05C1085.82 306.96 1087.02 308.17 1087.91 309.68C1088.8 311.2 1089.25 312.86 1089.25 314.67C1089.25 316.29 1088.88 317.81 1088.15 319.22C1087.42 320.63 1086.41 321.8 1085.13 322.74C1083.85 323.68 1082.43 324.26 1080.86 324.47L1091.13 339.33H1084.71L1074.58 324.61H1069.61V339.33H1064.36V304.69H1079.36C1081.14 304.69 1082.79 305.14 1084.31 306.05H1084.3ZM1079.35 319.36C1080.63 319.36 1081.73 318.9 1082.63 317.98C1083.54 317.06 1083.99 315.96 1083.99 314.68C1083.99 313.4 1083.54 312.3 1082.63 311.37C1081.72 310.45 1080.63 309.99 1079.35 309.99H1069.6V319.37H1079.35V319.36Z" fill="#101827"/>
<path d="M1113.67 304.69L1126.61 339.33H1120.98L1117.89 331.13H1103.41L1100.36 339.33H1094.73L1107.67 304.69H1113.67ZM1115.96 325.88L1110.66 311.63L1105.36 325.88H1115.95H1115.96Z" fill="#101827"/>
<path d="M1124.49 309.94V304.69H1153.13V309.94H1141.46V339.33H1136.21V309.94H1124.49Z" fill="#101827"/>
<path d="M1162.37 304.69V339.33H1157.12V304.69H1162.37Z" fill="#101827"/>
<path d="M1174.58 337.55C1172.06 335.93 1170.06 333.74 1168.58 330.99C1167.1 328.24 1166.35 325.24 1166.35 321.99C1166.35 318.74 1167.09 315.74 1168.58 312.99C1170.07 310.24 1172.07 308.06 1174.58 306.45C1177.09 304.84 1179.84 304.04 1182.81 304.04C1185.78 304.04 1188.53 304.85 1191.06 306.45C1193.59 308.06 1195.6 310.24 1197.08 312.99C1198.56 315.74 1199.31 318.74 1199.31 321.99C1199.31 325.24 1198.57 328.24 1197.08 330.99C1195.59 333.74 1193.59 335.93 1191.06 337.55C1188.53 339.18 1185.78 339.99 1182.81 339.99C1179.84 339.99 1177.1 339.18 1174.58 337.55ZM1173.11 328.39C1174.11 330.34 1175.47 331.89 1177.19 333.03C1178.91 334.17 1180.78 334.74 1182.81 334.74C1184.84 334.74 1186.72 334.17 1188.44 333.03C1190.16 331.89 1191.53 330.34 1192.54 328.39C1193.55 326.44 1194.06 324.3 1194.06 321.99C1194.06 319.68 1193.55 317.59 1192.54 315.64C1191.53 313.69 1190.16 312.14 1188.44 311C1186.72 309.86 1184.85 309.29 1182.81 309.29C1180.77 309.29 1178.9 309.86 1177.19 311C1175.47 312.14 1174.11 313.68 1173.11 315.62C1172.11 317.56 1171.61 319.68 1171.61 321.99C1171.61 324.3 1172.11 326.44 1173.11 328.39Z" fill="#101827"/>
<path d="M1208.5 304.69L1225.85 329.96V304.69H1231.1V339.33H1225.9L1208.56 314.06V339.33H1203.31V304.69H1208.51H1208.5Z" fill="#101827"/>
<path d="M1248.86 339.99C1246.2 339.99 1243.72 339.29 1241.41 337.88C1239.6 336.79 1238.17 335.36 1237.12 333.59C1236.07 331.83 1235.55 329.99 1235.55 328.08C1235.55 327.67 1235.57 327.36 1235.6 327.14H1240.9C1240.84 327.52 1240.81 327.81 1240.81 328.03C1240.81 329.03 1241.11 330.01 1241.72 330.96C1242.33 331.91 1243.16 332.73 1244.23 333.42C1245.48 334.23 1246.96 334.64 1248.68 334.64C1249.96 334.64 1251.19 334.41 1252.38 333.94C1253.57 333.47 1254.53 332.81 1255.26 331.97C1255.99 331.13 1256.36 330.2 1256.36 329.2C1256.36 329.04 1256.33 328.78 1256.27 328.4C1256.05 327.31 1255.56 326.48 1254.79 325.92C1254.02 325.36 1252.77 324.92 1251.02 324.61L1249.24 324.28C1246.68 323.81 1244.5 323.23 1242.7 322.55C1240.9 321.86 1239.41 320.74 1238.22 319.18C1237.09 317.68 1236.53 316.01 1236.53 314.16C1236.53 312.72 1236.89 311.32 1237.61 309.94C1238.33 308.57 1239.33 307.41 1240.61 306.47C1241.7 305.66 1242.91 305.05 1244.22 304.64C1245.53 304.23 1246.88 304.03 1248.25 304.03C1250.53 304.03 1252.63 304.54 1254.53 305.58C1256.59 306.67 1258.15 308.15 1259.19 310.01C1260.24 311.87 1260.67 313.92 1260.48 316.17H1255.23C1255.26 315.98 1255.28 315.69 1255.28 315.28C1255.28 314.19 1255.01 313.21 1254.46 312.35C1253.91 311.49 1253.14 310.8 1252.14 310.26C1250.77 309.57 1249.44 309.23 1248.16 309.23C1246.53 309.23 1245.05 309.71 1243.71 310.68C1243.12 311.12 1242.66 311.63 1242.33 312.23C1242 312.83 1241.84 313.45 1241.84 314.1C1241.84 314.98 1242.09 315.77 1242.59 316.49C1243.06 317.18 1243.75 317.67 1244.65 317.97C1245.56 318.27 1246.87 318.56 1248.59 318.84C1248.93 318.87 1249.45 318.95 1250.14 319.07L1252.02 319.4C1254.8 319.9 1256.96 320.79 1258.49 322.07C1260.02 323.35 1261.01 325.12 1261.44 327.37C1261.53 327.93 1261.58 328.5 1261.58 329.06C1261.58 331 1260.99 332.79 1259.82 334.45C1258.65 336.11 1257.01 337.47 1254.92 338.53C1253.01 339.5 1251 339.98 1248.87 339.98L1248.86 339.99Z" fill="#101827"/>
<path d="M566.16 296.27L564.66 296.48C563.23 298.91 560.76 301.16 557.26 303.24C553.75 305.31 549.36 306.35 544.06 306.35C537.33 306.35 530.04 305.17 522.17 302.81C514.3 300.45 504.15 296.91 491.7 292.19C480.97 288.04 471.92 284.75 464.56 282.32C457.19 279.89 450 278.17 443 277.17V97.5799C443 95.4299 443.57 93.1799 444.72 90.8199C445.86 88.4599 447.15 86.4999 448.58 84.9199V83.4199H411.34V84.9199C412.63 87.4899 413.59 89.6099 414.24 91.2499C414.69 92.3999 414.98 93.6099 415.11 94.8599V278.88C415.11 282.31 414.36 285.57 412.86 288.64C411.36 291.72 409.57 294.33 407.5 296.47C405.42 298.62 404.17 299.9 403.74 300.33V301.83H419.4C428.55 301.83 437.89 303.15 447.4 305.8C456.91 308.45 468.6 312.27 482.48 317.28C496.64 322.29 508.26 326.04 517.35 328.54C526.43 331.04 535.34 332.3 544.06 332.3C550.93 332.3 556.75 331.33 561.55 329.4C566.34 327.47 569.95 324.89 572.39 321.67C574.82 318.45 576.04 315.13 576.04 311.69C576.04 304.97 572.75 299.81 566.17 296.24L566.16 296.27Z" fill="#101827"/>
<path d="M2.17969 199.77C15.9197 157.58 44.2297 131.32 73.3497 118.94C71.9897 127.24 73.2097 135.68 77.2997 143.16C79.6097 147.38 82.6097 151.19 86.2797 154.32C69.6797 163.85 53.8897 176.91 43.5497 189.84C43.6897 178.41 45.0497 169.16 47.6297 160.45C23.4097 175.83 2.17969 199.78 2.17969 199.78V199.77Z" fill="#1C4ED8"/>
<path d="M141.39 322.52L141.8 301.43C162.35 328.37 167.38 364.98 149.28 395.74C146.56 368.25 142.48 355.46 123.97 335.32C122.34 346.48 123.02 365.12 123.02 365.12C87.0902 329.74 75.2502 279.93 97.1602 236.25C98.5202 292.72 128.87 304.02 141.39 322.53V322.52Z" fill="#1C4ED8"/>
<path d="M166.57 377.49C175.01 382.8 183.99 387.83 193.24 392.46C278.29 350.14 329.87 281.14 343.88 187.38C348.64 155.94 348.78 123.29 345.1 91.71C344.01 82.59 342.65 72.52 340.75 63L193.24 21.77L45.8597 63.01C43.9497 72.26 42.5897 81.93 41.5097 90.63C31.7097 99.61 23.9597 110.5 17.9697 123.7C19.3297 77.98 28.0397 46.27 28.0397 46.27L193.24 0L358.58 46.27C358.58 46.27 430.43 305.92 193.24 415.73C180.99 410.01 169.43 403.89 158.68 397.36L160.99 392.32C163.3 387.42 165.07 382.52 166.57 377.49Z" fill="#101827"/>
<path d="M118.66 157.72C127.51 159.63 130.77 160.44 130.77 160.44C114.58 175.41 97.1605 187.79 97.5705 222.63C101.79 217.6 107.64 211.47 113.08 207.93C103.69 229.43 118.93 270.12 130.36 283.73C132.4 266.99 138.66 249.98 155.13 237.46C151.05 249.3 152.95 295.16 157.58 308.36C157.58 308.36 164.25 295.43 165.88 289.72C179.08 330.54 179.22 341.57 167.38 364.97C181.4 362.11 194.6 352.18 204.53 342.24C203.44 348.64 201.13 354.35 201.13 354.35C214.33 350.54 226.31 337.48 231.2 324.14C240.73 318.97 247.26 311.89 249.44 301.41L250.94 293.38C260.33 245.48 303.33 260.18 309.86 228.74C310.54 225.2 310.54 220.85 309.32 217.31L309.18 216.9C314.62 215.54 318.71 211.05 321.16 206.01C322.93 202.34 324.29 196.21 324.83 192.27C326.05 185.19 326.74 175.53 319.52 171.18C318.16 170.36 316.53 169.82 314.76 169.68C315.03 168.86 315.3 168.05 315.44 167.23C316.26 161.51 312.85 156.89 308.23 153.89L286.18 139.19L277.06 126.4C275.56 124.36 274.07 122.18 272.43 119.87C272.7 115.79 273.11 111.57 273.11 110.48C273.25 108.03 266.03 86.3901 261.41 81.4901C248.35 67.8801 229.97 61.2101 211.88 57.0001C226.44 68.9801 229.43 75.6401 231.07 82.8601C231.34 83.6801 231.21 86.9401 231.07 90.4801C227.12 83.2701 223.18 76.3301 219.5 71.4301C213.51 63.2601 169.97 44.3501 165.07 44.3501C147.24 44.3501 108.32 56.7301 93.2205 67.2101C122.89 62.0401 141.39 58.0901 162.21 77.8201C139.35 68.5701 132.68 67.0701 108.87 72.5101C101.39 74.2801 93.3605 76.4601 85.6005 78.7701C49.1305 89.3801 32.6605 111.16 22.7305 140.01C39.6005 126.13 54.4405 118.24 75.1205 112.25C77.9805 104.09 83.2805 97.0101 89.5405 91.1601L93.0805 87.8901L97.7105 89.1101C104.11 90.7401 120.57 95.5101 137.04 100.27C146.29 98.7701 156.09 97.4101 158.68 97.5501C162.35 97.6901 181.13 102.04 193.65 104.9H193.79C190.25 98.7801 186.58 92.6501 186.58 92.6501C186.58 92.6501 206.72 99.4501 222.51 107.07C223.6 107.34 224.69 107.75 225.64 108.16C227.14 108.98 228.91 110.07 230.68 111.29C234.49 113.47 237.35 115.64 239.53 117.69C241.71 119.6 243.88 121.36 245.52 123.13C244.84 120.14 243.48 117.01 241.17 113.33L254.64 112.51C259.68 116.86 265.66 125.03 270.15 131.29L257.49 126.39C259.8 132.92 266.74 136.6 275.32 142.18L303.49 160.82C313.29 167.35 300.09 172.39 293.96 174.02C286.48 170.89 275.72 166.67 274.77 166.13C273.41 165.45 273 162.59 273 162.59C273 162.59 262.52 167.22 259.39 172.12C256.26 177.02 258.71 179.74 258.71 179.74C258.71 179.74 262.93 177.02 267.69 176.75C272.45 176.48 287.56 179.74 290.28 184.51C291.64 186.82 292.05 190.23 292.05 193.08C291.91 217.3 248.37 215.94 242.38 209C242.38 209 245.78 204.51 253.27 202.33C243.2 200.7 237.48 205.6 237.48 205.6C218.02 205.33 201.69 217.85 195.29 232.82C196.65 211.18 219.92 193.76 239.38 189.41C222.23 187.78 203.05 197.85 203.05 197.85C209.31 183.02 230.95 174.44 241.43 173.63C214.62 169.96 181.83 185.47 168.76 216.77C163.59 203.57 162.77 192.68 164.41 183.97C158.83 186.01 153.66 188.73 149.44 192C149.44 192 151.21 180.71 160.19 169.95C151.07 173.08 142.23 177.57 135.42 182.47C139.91 170.22 147.4 159.47 152.43 153.21C142.63 152.53 132.56 150.76 132.29 145.18C131.47 139.06 138.14 132.39 141.27 129.53C139.23 128.03 136.1 126.13 133.38 125.31C128.48 123.81 108.89 121.36 108.89 121.36C101.27 131.02 105.22 143.13 116.65 149.94C110.53 149.8 104.95 147.63 101.95 145.31C105.76 151.84 112.7 155.52 118.69 157.69L118.66 157.72ZM247.13 237.46C249.04 230.52 247.4 220.59 244.14 214.19C248.77 215.14 253.39 217.46 257.07 217.73C259.25 225.35 253.26 233.79 247.14 237.46H247.13ZM296.66 193.65C296.8 189.3 297.34 184.12 298.16 182.9C299.79 180.86 309.86 178.27 313.4 178C320.75 177.46 315.03 199.09 313.4 202.36C307.41 214.88 296.12 207.8 296.66 193.65ZM290.4 241.14C292.71 234.34 293.12 225.22 291.62 220.18L282.77 218.27C282.77 218.27 290.93 216.5 292.7 217.05C294.47 217.59 296.78 219.77 298.82 219.91C300.86 219.91 301.27 220.05 301.27 220.05C301.27 220.05 305.35 231.75 290.38 241.14H290.4ZM238.69 280.33C245.9 259.1 263.32 241.41 283.73 236.65C264.81 245.5 246.99 269.31 242.5 291.76C242.09 289.17 241.28 286.45 240.32 284L238.69 280.33ZM193.78 247.67C192.42 258.01 192.15 268.76 194.73 277.2C195 274.61 195.68 271.89 196.91 269.72C197.45 276.66 197.45 283.46 203.17 294.62L203.31 294.76C203.72 294.62 209.98 292.04 215.42 280.61C217.87 292.04 213.65 300.48 213.65 300.48C213.65 300.48 215.83 299.8 216.78 297.62C227.39 300.34 230.25 297.35 230.25 297.35C230.25 297.35 230.39 298.85 230.11 300.62C232.56 297.22 234.87 294.5 235.42 286.06C240.86 298.72 237.05 312.32 223.99 318.31C223.99 318.31 225.62 314.5 225.49 310.01C221.27 315.04 213.38 318.58 213.38 318.58C213.65 315.31 211.47 310.82 209.71 307.01C207.67 308.51 201.68 311.36 196.24 313C195.15 305.11 190.93 296.4 188.62 288.51C185.35 276.94 185.08 266.46 193.79 247.69L193.78 247.67Z" fill="#1C4ED8"/>
<path d="M0 242.5C6.26 220.18 16.74 204.94 36.47 190.52C36.47 190.52 35.25 202.9 34.97 214.61C44.63 198.28 70.9 170.79 103.56 166.16C80.56 182.9 65.32 215.15 64.23 242.91C73.48 224.27 90.22 211.07 90.22 211.07C68.99 256.39 93.76 303.61 59.06 345.38C64.91 312.86 40.96 273.26 46.68 238.15C25.32 269.18 25.72 287.82 25.72 287.82C12.25 271.9 13.88 246.31 18.78 226.86C12.52 230.26 5.99 237.34 0 242.51L0 242.5Z" fill="#1C4ED8"/>
<path d="M95.5296 97.1602C101.52 98.7902 109.68 101.24 117.71 103.56C123.02 105.06 128.19 106.55 132.68 107.78C139.21 109.82 146.02 112 149.28 113.5C151.19 115 152.95 116.77 154.86 118.67C157.45 121.39 162.21 126.56 165.47 130.92C164.52 132.42 162.07 136.64 159.62 142.35C154.45 142.35 147.51 143.03 139.34 144.66C142.74 141.12 150.09 138.54 156.21 137.04C156.21 137.04 149.41 135.41 140.42 138.26C144.09 135.27 149.81 132 157.02 132.68C157.02 132.68 142.6 119.34 141.64 118.94C140.55 118.67 103.26 108.87 103.26 108.87C88.6996 116.08 86.7896 141.39 102.04 153.91C80.5396 145.74 71.8296 119.34 95.5096 97.1602H95.5296Z" fill="#1C4ED8"/>
<path d="M228.75 135.27C232.83 135.54 234.6 139.62 237.32 140.99C239.91 142.35 264.13 155.01 264.13 155.01C251.61 150.25 240.86 147.53 231.2 144.53C229.84 144.12 208.07 145.89 206.02 145.35C204.11 144.81 200.44 140.86 199.22 140.45C197.86 140.18 190.24 141.4 190.24 141.4C190.24 141.4 192.69 138.13 200.04 136.09C207.39 133.91 224.81 135 228.75 135.27Z" fill="#1C4ED8"/>
</g>
<defs>
<clipPath id="clip0_67_19">
<rect width="1277" height="415.73" fill="white"/>
</clipPath>
</defs>
</svg>
